# MagicaVoxel @ Ephtracy

# group
o 

# material
mtllib bed.mtl
usemtl palette

# normals
vn -1 0 0
vn 1 0 0
vn 0 0 1
vn 0 0 -1
vn 0 -1 0
vn 0 1 0

# texcoords
vt 0.845703 0.5
vt 0.876953 0.5
vt 0.884766 0.5
vt 0.888672 0.5
vt 0.896484 0.5
vt 0.900391 0.5

# verts
v 0.2 0.1 6.3
v 0.2 0.1 3
v 0.2 0.1 2.9
v 0.2 0.2 6.3
v 0.2 0.2 3
v 0.2 1.7 5.9
v 0.2 1.7 2.9
v 0.2 3.8 6.3
v 0.2 3.8 5.9
v 0.7 0.2 5.8
v 0.7 0.2 3.2
v 0.7 0.3 5.8
v 0.7 0.3 3.2
v 0.9 0.1 5.5
v 0.9 0.1 3.4
v 0.9 0.2 5.5
v 0.9 0.2 3.4
v 1.1 0.2 5.3
v 1.1 0.2 4.5
v 1.1 0.2 4.4
v 1.1 0.2 3.6
v 1.1 0.3 5.3
v 1.1 0.3 3.6
v 5.2 0.1 5.7
v 5.2 0.1 4.5
v 5.2 0.1 4.2
v 5.2 0.1 3
v 5.2 0.2 6.1
v 5.2 0.2 5.7
v 5.2 0.2 4.5
v 5.2 0.2 4.2
v 5.2 0.8 5.2
v 5.2 0.8 5.1
v 5.2 0.8 3.6
v 5.2 0.8 3.5
v 5.2 0.9 6.1
v 5.2 0.9 5.9
v 5.2 0.9 5.2
v 5.2 0.9 5.1
v 5.2 0.9 3.6
v 5.2 0.9 3.5
v 5.2 0.9 3
v 5.3 0.1 4.5
v 5.3 0.1 4.2
v 5.3 0.2 4.5
v 5.3 0.2 4.2
v 6.2 0.2 5.5
v 6.2 0.2 3.1
v 6.2 0.8 5.5
v 6.2 0.8 3.1
v 6.2 1.1 6.1
v 6.2 1.1 5.9
v 6.2 1.5 6.1
v 6.2 1.5 5.9
v 6.2 1.7 6.1
v 6.2 1.7 5.9
v 6.2 1.9 6.1
v 6.2 1.9 5.9
v 6.2 2.1 6.1
v 6.2 2.1 5.9
v 6.2 2.5 6.1
v 6.2 2.5 5.9
v 6.2 2.7 6.1
v 6.2 2.7 5.9
v 6.2 3.1 6.1
v 6.2 3.1 5.9
v 6.2 3.3 6.1
v 6.2 3.3 5.9
v 6.2 3.7 6.1
v 6.2 3.7 5.9
v 0.3 1.7 6.1
v 0.3 1.7 5.9
v 0.3 1.9 6.1
v 0.3 1.9 5.9
v 0.3 2.1 6.1
v 0.3 2.1 5.9
v 0.3 2.5 6.1
v 0.3 2.5 5.9
v 0.3 2.7 6.1
v 0.3 2.7 5.9
v 0.3 3.1 6.1
v 0.3 3.1 5.9
v 0.3 3.3 6.1
v 0.3 3.3 5.9
v 0.3 3.7 6.1
v 0.3 3.7 5.9
v 0.4 0.2 6.1
v 0.4 0.2 3
v 0.4 0.9 6.1
v 0.4 0.9 3
v 0.4 1.1 6.1
v 0.4 1.1 3
v 0.4 1.5 6.1
v 0.4 1.5 3
v 0.6 0.3 3
v 0.6 0.3 2.9
v 0.6 0.9 5.9
v 0.6 0.9 3
v 0.6 1.1 5.9
v 0.6 1.1 3
v 0.6 1.5 5.9
v 0.6 1.5 3
v 0.6 1.7 5.9
v 0.6 1.7 2.9
v 0.8 0.1 5.7
v 0.8 0.1 3.3
v 0.8 0.3 5.7
v 0.8 0.3 3.3
v 1.9 0.2 5.8
v 1.9 0.2 5.7
v 1.9 0.3 5.8
v 1.9 0.3 5.7
v 2 0.1 3.3
v 2 0.1 2.9
v 2 0.2 3.2
v 2 0.2 3
v 2 0.3 3.3
v 2 0.3 3.2
v 2 0.3 3
v 2 0.3 2.9
v 4.9 0.2 5.3
v 4.9 0.2 4.5
v 4.9 0.2 4.4
v 4.9 0.2 3.6
v 4.9 0.3 5.3
v 4.9 0.3 3.6
v 5.1 0.1 5.5
v 5.1 0.1 3.4
v 5.1 0.2 5.5
v 5.1 0.2 3.4
v 5.3 0.2 5.5
v 5.3 0.2 3.1
v 5.3 0.8 5.5
v 5.3 0.8 3.1
v 6.3 0.1 6.3
v 6.3 0.1 3
v 6.3 0.2 5.9
v 6.3 0.2 5.7
v 6.3 0.8 5.9
v 6.3 0.8 5.7
v 6.3 0.9 5.9
v 6.3 0.9 3
v 6.3 3.8 6.3
v 6.3 3.8 5.9
v 0.2 0.1 6.3
v 0.2 0.2 6.3
v 0.2 3.8 6.3
v 5.2 0.1 6.3
v 5.2 0.2 6.3
v 6.3 0.1 6.3
v 6.3 3.8 6.3
v 0.7 0.2 5.8
v 0.7 0.3 5.8
v 1.9 0.2 5.8
v 1.9 0.3 5.8
v 0.9 0.1 5.5
v 0.9 0.2 5.5
v 5.1 0.1 5.5
v 5.1 0.2 5.5
v 1.1 0.2 5.3
v 1.1 0.3 5.3
v 3 0.2 5.3
v 3.1 0.2 5.3
v 4.9 0.2 5.3
v 4.9 0.3 5.3
v 5.2 0.1 4.2
v 5.2 0.2 4.2
v 5.3 0.1 4.2
v 5.3 0.2 4.2
v 0.8 0.1 3.3
v 0.8 0.3 3.3
v 2 0.1 3.3
v 2 0.3 3.3
v 5.3 0.2 3.1
v 5.3 0.8 3.1
v 6.2 0.2 3.1
v 6.2 0.8 3.1
v 0.4 0.2 3
v 0.4 0.9 3
v 0.4 1.1 3
v 0.4 1.5 3
v 0.6 0.3 3
v 0.6 0.9 3
v 0.6 1.1 3
v 0.6 1.5 3
v 2 0.2 3
v 2 0.3 3
v 0.3 1.7 6.1
v 0.3 1.9 6.1
v 0.3 2.1 6.1
v 0.3 2.5 6.1
v 0.3 2.7 6.1
v 0.3 3.1 6.1
v 0.3 3.3 6.1
v 0.3 3.7 6.1
v 0.4 0.2 6.1
v 0.4 0.9 6.1
v 0.4 1.1 6.1
v 0.4 1.5 6.1
v 5.2 0.2 6.1
v 5.2 0.9 6.1
v 6.2 1.1 6.1
v 6.2 1.5 6.1
v 6.2 1.7 6.1
v 6.2 1.9 6.1
v 6.2 2.1 6.1
v 6.2 2.5 6.1
v 6.2 2.7 6.1
v 6.2 3.1 6.1
v 6.2 3.3 6.1
v 6.2 3.7 6.1
v 0.2 1.7 5.9
v 0.2 3.8 5.9
v 0.3 1.7 5.9
v 0.3 1.9 5.9
v 0.3 2.1 5.9
v 0.3 2.5 5.9
v 0.3 2.7 5.9
v 0.3 3.1 5.9
v 0.3 3.3 5.9
v 0.3 3.7 5.9
v 0.6 0.9 5.9
v 0.6 1.1 5.9
v 0.6 1.5 5.9
v 0.6 1.7 5.9
v 5.2 0.9 5.9
v 6.2 1.1 5.9
v 6.2 1.5 5.9
v 6.2 1.7 5.9
v 6.2 1.9 5.9
v 6.2 2.1 5.9
v 6.2 2.5 5.9
v 6.2 2.7 5.9
v 6.2 3.1 5.9
v 6.2 3.3 5.9
v 6.2 3.7 5.9
v 6.3 0.9 5.9
v 6.3 3.8 5.9
v 0.8 0.1 5.7
v 0.8 0.3 5.7
v 1.9 0.2 5.7
v 1.9 0.3 5.7
v 5.2 0.1 5.7
v 5.2 0.2 5.7
v 5.3 0.2 5.5
v 5.3 0.8 5.5
v 6.2 0.2 5.5
v 6.2 0.8 5.5
v 5.2 0.1 4.5
v 5.2 0.2 4.5
v 5.3 0.1 4.5
v 5.3 0.2 4.5
v 1.1 0.2 3.6
v 1.1 0.3 3.6
v 3 0.2 3.6
v 3.1 0.2 3.6
v 4.9 0.2 3.6
v 4.9 0.3 3.6
v 0.9 0.1 3.4
v 0.9 0.2 3.4
v 5.1 0.1 3.4
v 5.1 0.2 3.4
v 0.7 0.2 3.2
v 0.7 0.3 3.2
v 2 0.2 3.2
v 2 0.3 3.2
v 5.2 0.1 3
v 5.2 0.9 3
v 6.3 0.1 3
v 6.3 0.9 3
v 0.2 0.1 2.9
v 0.2 1.7 2.9
v 0.6 0.3 2.9
v 0.6 1.7 2.9
v 2 0.1 2.9
v 2 0.3 2.9
v 0.2 0.1 6.3
v 5.2 0.1 6.3
v 6.3 0.1 6.3
v 0.4 0.1 6.1
v 5.2 0.1 6.1
v 0.8 0.1 5.7
v 5.2 0.1 5.7
v 0.9 0.1 5.5
v 5.1 0.1 5.5
v 1 0.1 5.4
v 3 0.1 5.4
v 3.1 0.1 5.4
v 5 0.1 5.4
v 1 0.1 4.5
v 3 0.1 4.5
v 3.1 0.1 4.5
v 5 0.1 4.5
v 5.2 0.1 4.5
v 5.3 0.1 4.5
v 1 0.1 4.4
v 3 0.1 4.4
v 3.1 0.1 4.4
v 5 0.1 4.4
v 5.2 0.1 4.2
v 5.3 0.1 4.2
v 1 0.1 3.5
v 3 0.1 3.5
v 3.1 0.1 3.5
v 5 0.1 3.5
v 0.9 0.1 3.4
v 5.1 0.1 3.4
v 0.8 0.1 3.3
v 2 0.1 3.3
v 0.2 0.1 3
v 0.4 0.1 3
v 5.2 0.1 3
v 6.3 0.1 3
v 0.2 0.1 2.9
v 2 0.1 2.9
v 5.2 0.2 4.5
v 5.3 0.2 4.5
v 5.2 0.2 4.2
v 5.3 0.2 4.2
v 5.3 0.8 5.5
v 6.2 0.8 5.5
v 5.3 0.8 3.1
v 6.2 0.8 3.1
v 0.4 0.9 6.1
v 5.2 0.9 6.1
v 0.6 0.9 5.9
v 5.2 0.9 5.9
v 0.4 0.9 3
v 0.6 0.9 3
v 0.4 1.5 6.1
v 6.2 1.5 6.1
v 0.6 1.5 5.9
v 6.2 1.5 5.9
v 0.4 1.5 3
v 0.6 1.5 3
v 0.3 1.9 6.1
v 6.2 1.9 6.1
v 0.3 1.9 5.9
v 6.2 1.9 5.9
v 0.3 2.5 6.1
v 6.2 2.5 6.1
v 0.3 2.5 5.9
v 6.2 2.5 5.9
v 0.3 3.1 6.1
v 6.2 3.1 6.1
v 0.3 3.1 5.9
v 6.2 3.1 5.9
v 0.3 3.7 6.1
v 6.2 3.7 6.1
v 0.3 3.7 5.9
v 6.2 3.7 5.9
v 0.4 0.2 6.1
v 5.2 0.2 6.1
v 0.7 0.2 5.8
v 1.9 0.2 5.8
v 1.9 0.2 5.7
v 5.2 0.2 5.7
v 0.9 0.2 5.5
v 5.1 0.2 5.5
v 5.3 0.2 5.5
v 6.2 0.2 5.5
v 1 0.2 5.4
v 3 0.2 5.4
v 3.1 0.2 5.4
v 5 0.2 5.4
v 1.1 0.2 5.3
v 3 0.2 5.3
v 3.1 0.2 5.3
v 4.9 0.2 5.3
v 1 0.2 4.5
v 1.1 0.2 4.5
v 4.9 0.2 4.5
v 5 0.2 4.5
v 1 0.2 4.4
v 1.1 0.2 4.4
v 4.9 0.2 4.4
v 5 0.2 4.4
v 1.1 0.2 3.6
v 3 0.2 3.6
v 3.1 0.2 3.6
v 4.9 0.2 3.6
v 1 0.2 3.5
v 3 0.2 3.5
v 3.1 0.2 3.5
v 5 0.2 3.5
v 0.9 0.2 3.4
v 5.1 0.2 3.4
v 0.7 0.2 3.2
v 2 0.2 3.2
v 5.3 0.2 3.1
v 6.2 0.2 3.1
v 0.4 0.2 3
v 2 0.2 3
v 0.7 0.3 5.8
v 1.9 0.3 5.8
v 0.8 0.3 5.7
v 1.9 0.3 5.7
v 1.1 0.3 5.3
v 4.9 0.3 5.3
v 1.1 0.3 3.6
v 4.9 0.3 3.6
v 0.8 0.3 3.3
v 2 0.3 3.3
v 0.7 0.3 3.2
v 2 0.3 3.2
v 0.6 0.3 3
v 2 0.3 3
v 0.6 0.3 2.9
v 2 0.3 2.9
v 5.2 0.9 5.9
v 6.3 0.9 5.9
v 5.2 0.9 5.2
v 5.3 0.9 5.2
v 5.2 0.9 5.1
v 5.3 0.9 5.1
v 5.2 0.9 3.6
v 5.3 0.9 3.6
v 5.2 0.9 3.5
v 5.3 0.9 3.5
v 5.2 0.9 3
v 6.3 0.9 3
v 0.4 1.1 6.1
v 6.2 1.1 6.1
v 0.6 1.1 5.9
v 6.2 1.1 5.9
v 0.4 1.1 3
v 0.6 1.1 3
v 0.3 1.7 6.1
v 6.2 1.7 6.1
v 0.2 1.7 5.9
v 0.3 1.7 5.9
v 0.6 1.7 5.9
v 6.2 1.7 5.9
v 0.2 1.7 2.9
v 0.6 1.7 2.9
v 0.3 2.1 6.1
v 6.2 2.1 6.1
v 0.3 2.1 5.9
v 6.2 2.1 5.9
v 0.3 2.7 6.1
v 6.2 2.7 6.1
v 0.3 2.7 5.9
v 6.2 2.7 5.9
v 0.3 3.3 6.1
v 6.2 3.3 6.1
v 0.3 3.3 5.9
v 6.2 3.3 5.9
v 0.2 3.8 6.3
v 6.3 3.8 6.3
v 0.2 3.8 5.9
v 6.3 3.8 5.9

# faces
f 4/3/1 2/3/1 1/3/1
f 5/4/1 3/4/1 2/4/1
f 5/3/1 2/3/1 4/3/1
f 6/4/1 5/4/1 4/4/1
f 7/4/1 3/4/1 5/4/1
f 7/4/1 5/4/1 6/4/1
f 8/4/1 6/4/1 4/4/1
f 9/4/1 6/4/1 8/4/1
f 12/4/1 11/4/1 10/4/1
f 13/4/1 11/4/1 12/4/1
f 16/5/1 15/5/1 14/5/1
f 17/5/1 15/5/1 16/5/1
f 22/6/1 19/6/1 18/6/1
f 22/6/1 21/6/1 20/6/1
f 22/6/1 20/6/1 19/6/1
f 23/6/1 21/6/1 22/6/1
f 29/4/1 25/4/1 24/4/1
f 30/4/1 25/4/1 29/4/1
f 31/4/1 27/4/1 26/4/1
f 32/4/1 30/4/1 29/4/1
f 32/4/1 31/4/1 30/4/1
f 32/4/1 29/4/1 28/4/1
f 33/4/1 31/4/1 32/4/1
f 34/4/1 27/4/1 31/4/1
f 34/4/1 31/4/1 33/4/1
f 35/4/1 27/4/1 34/4/1
f 36/4/1 32/4/1 28/4/1
f 37/4/1 32/4/1 36/4/1
f 38/5/1 33/5/1 32/5/1
f 38/4/1 32/4/1 37/4/1
f 39/4/1 34/4/1 33/4/1
f 39/5/1 33/5/1 38/5/1
f 40/5/1 35/5/1 34/5/1
f 40/4/1 34/4/1 39/4/1
f 41/4/1 27/4/1 35/4/1
f 41/5/1 35/5/1 40/5/1
f 42/4/1 27/4/1 41/4/1
f 45/4/1 44/4/1 43/4/1
f 46/4/1 44/4/1 45/4/1
f 49/4/1 48/4/1 47/4/1
f 50/4/1 48/4/1 49/4/1
f 53/4/1 52/4/1 51/4/1
f 54/4/1 52/4/1 53/4/1
f 57/4/1 56/4/1 55/4/1
f 58/4/1 56/4/1 57/4/1
f 61/4/1 60/4/1 59/4/1
f 62/4/1 60/4/1 61/4/1
f 65/4/1 64/4/1 63/4/1
f 66/4/1 64/4/1 65/4/1
f 69/4/1 68/4/1 67/4/1
f 70/4/1 68/4/1 69/4/1
f 71/4/2 72/4/2 73/4/2
f 73/4/2 72/4/2 74/4/2
f 75/4/2 76/4/2 77/4/2
f 77/4/2 76/4/2 78/4/2
f 79/4/2 80/4/2 81/4/2
f 81/4/2 80/4/2 82/4/2
f 83/4/2 84/4/2 85/4/2
f 85/4/2 84/4/2 86/4/2
f 87/4/2 88/4/2 89/4/2
f 89/4/2 88/4/2 90/4/2
f 91/4/2 92/4/2 93/4/2
f 93/4/2 92/4/2 94/4/2
f 95/4/2 96/4/2 98/4/2
f 97/4/2 98/4/2 99/4/2
f 98/4/2 96/4/2 100/4/2
f 99/4/2 98/4/2 100/4/2
f 100/4/2 96/4/2 102/4/2
f 101/4/2 102/4/2 103/4/2
f 102/4/2 96/4/2 104/4/2
f 103/4/2 102/4/2 104/4/2
f 105/4/2 106/4/2 107/4/2
f 107/4/2 106/4/2 108/4/2
f 109/4/2 110/4/2 111/4/2
f 111/4/2 110/4/2 112/4/2
f 113/4/2 114/4/2 115/4/2
f 115/4/2 114/4/2 116/4/2
f 113/4/2 115/4/2 117/4/2
f 117/4/2 115/4/2 118/4/2
f 116/4/2 114/4/2 119/4/2
f 119/4/2 114/4/2 120/4/2
f 121/6/2 122/6/2 125/6/2
f 123/6/2 124/6/2 125/6/2
f 122/6/2 123/6/2 125/6/2
f 125/6/2 124/6/2 126/6/2
f 127/5/2 128/5/2 129/5/2
f 129/5/2 128/5/2 130/5/2
f 131/4/2 132/4/2 133/4/2
f 133/4/2 132/4/2 134/4/2
f 135/4/2 136/4/2 137/4/2
f 137/4/2 136/4/2 138/4/2
f 135/4/2 137/4/2 139/4/2
f 137/2/2 138/2/2 139/2/2
f 138/4/2 136/4/2 140/4/2
f 139/2/2 138/2/2 140/2/2
f 135/4/2 139/4/2 141/4/2
f 139/4/2 140/4/2 141/4/2
f 140/4/2 136/4/2 142/4/2
f 141/4/2 140/4/2 142/4/2
f 135/4/2 141/4/2 143/4/2
f 143/4/2 141/4/2 144/4/2
f 148/3/3 146/3/3 145/3/3
f 149/4/3 147/4/3 146/4/3
f 149/3/3 146/3/3 148/3/3
f 150/4/3 149/4/3 148/4/3
f 151/4/3 147/4/3 149/4/3
f 151/4/3 149/4/3 150/4/3
f 154/4/3 153/4/3 152/4/3
f 155/4/3 153/4/3 154/4/3
f 158/5/3 157/5/3 156/5/3
f 159/5/3 157/5/3 158/5/3
f 162/6/3 161/6/3 160/6/3
f 163/6/3 161/6/3 162/6/3
f 164/6/3 161/6/3 163/6/3
f 165/6/3 161/6/3 164/6/3
f 168/4/3 167/4/3 166/4/3
f 169/4/3 167/4/3 168/4/3
f 172/4/3 171/4/3 170/4/3
f 173/4/3 171/4/3 172/4/3
f 176/4/3 175/4/3 174/4/3
f 177/4/3 175/4/3 176/4/3
f 182/4/3 179/4/3 178/4/3
f 183/4/3 179/4/3 182/4/3
f 184/4/3 181/4/3 180/4/3
f 185/4/3 181/4/3 184/4/3
f 186/4/3 182/4/3 178/4/3
f 187/4/3 182/4/3 186/4/3
f 196/4/4 197/4/4 200/4/4
f 200/4/4 197/4/4 201/4/4
f 198/4/4 199/4/4 202/4/4
f 202/4/4 199/4/4 203/4/4
f 188/4/4 189/4/4 204/4/4
f 204/4/4 189/4/4 205/4/4
f 190/4/4 191/4/4 206/4/4
f 206/4/4 191/4/4 207/4/4
f 192/4/4 193/4/4 208/4/4
f 208/4/4 193/4/4 209/4/4
f 194/4/4 195/4/4 210/4/4
f 210/4/4 195/4/4 211/4/4
f 212/4/4 213/4/4 214/4/4
f 214/4/4 213/4/4 215/4/4
f 215/4/4 213/4/4 216/4/4
f 216/4/4 213/4/4 217/4/4
f 217/4/4 213/4/4 218/4/4
f 218/4/4 213/4/4 219/4/4
f 219/4/4 213/4/4 220/4/4
f 220/4/4 213/4/4 221/4/4
f 222/4/4 223/4/4 226/4/4
f 226/4/4 223/4/4 227/4/4
f 224/4/4 225/4/4 228/4/4
f 228/4/4 225/4/4 229/4/4
f 215/4/4 216/4/4 230/4/4
f 230/4/4 216/4/4 231/4/4
f 217/4/4 218/4/4 232/4/4
f 232/4/4 218/4/4 233/4/4
f 219/4/4 220/4/4 234/4/4
f 234/4/4 220/4/4 235/4/4
f 221/4/4 213/4/4 236/4/4
f 234/4/4 235/4/4 237/4/4
f 235/4/4 236/4/4 237/4/4
f 228/4/4 229/4/4 237/4/4
f 232/4/4 233/4/4 237/4/4
f 233/4/4 234/4/4 237/4/4
f 230/4/4 231/4/4 237/4/4
f 231/4/4 232/4/4 237/4/4
f 226/4/4 227/4/4 237/4/4
f 229/4/4 230/4/4 237/4/4
f 227/4/4 228/4/4 237/4/4
f 236/4/4 213/4/4 238/4/4
f 237/4/4 236/4/4 238/4/4
f 239/4/4 240/4/4 241/4/4
f 241/4/4 240/4/4 242/4/4
f 239/4/4 241/4/4 243/4/4
f 243/4/4 241/4/4 244/4/4
f 245/4/4 246/4/4 247/4/4
f 247/4/4 246/4/4 248/4/4
f 249/4/4 250/4/4 251/4/4
f 251/4/4 250/4/4 252/4/4
f 253/6/4 254/6/4 255/6/4
f 255/6/4 254/6/4 256/6/4
f 256/6/4 254/6/4 257/6/4
f 257/6/4 254/6/4 258/6/4
f 259/5/4 260/5/4 261/5/4
f 261/5/4 260/5/4 262/5/4
f 263/4/4 264/4/4 265/4/4
f 265/4/4 264/4/4 266/4/4
f 267/4/4 268/4/4 269/4/4
f 269/4/4 268/4/4 270/4/4
f 271/4/4 272/4/4 273/4/4
f 273/4/4 272/4/4 274/4/4
f 271/4/4 273/4/4 275/4/4
f 275/4/4 273/4/4 276/4/4
f 280/3/5 278/3/5 277/3/5
f 281/4/5 279/4/5 278/4/5
f 281/3/5 278/3/5 280/3/5
f 282/4/5 281/4/5 280/4/5
f 283/4/5 279/4/5 281/4/5
f 283/4/5 281/4/5 282/4/5
f 286/5/5 285/5/5 284/5/5
f 287/5/5 285/5/5 286/5/5
f 288/5/5 285/5/5 287/5/5
f 289/5/5 285/5/5 288/5/5
f 290/5/5 286/5/5 284/5/5
f 290/1/5 287/1/5 286/1/5
f 291/5/5 288/5/5 287/5/5
f 291/1/5 287/1/5 290/1/5
f 292/1/5 289/1/5 288/1/5
f 292/5/5 288/5/5 291/5/5
f 293/5/5 285/5/5 289/5/5
f 293/1/5 289/1/5 292/1/5
f 294/4/5 279/4/5 283/4/5
f 295/4/5 279/4/5 294/4/5
f 296/5/5 292/5/5 291/5/5
f 296/5/5 291/5/5 290/5/5
f 296/5/5 290/5/5 284/5/5
f 296/5/5 293/5/5 292/5/5
f 297/5/5 293/5/5 296/5/5
f 298/5/5 293/5/5 297/5/5
f 299/5/5 285/5/5 293/5/5
f 299/5/5 293/5/5 298/5/5
f 301/4/5 279/4/5 295/4/5
f 302/5/5 296/5/5 284/5/5
f 302/1/5 297/1/5 296/1/5
f 303/5/5 298/5/5 297/5/5
f 303/1/5 297/1/5 302/1/5
f 304/1/5 299/1/5 298/1/5
f 304/5/5 298/5/5 303/5/5
f 305/5/5 285/5/5 299/5/5
f 305/1/5 299/1/5 304/1/5
f 306/5/5 302/5/5 284/5/5
f 306/5/5 304/5/5 303/5/5
f 306/5/5 305/5/5 304/5/5
f 306/5/5 303/5/5 302/5/5
f 307/5/5 285/5/5 305/5/5
f 307/5/5 305/5/5 306/5/5
f 308/4/5 282/4/5 280/4/5
f 310/3/5 280/3/5 277/3/5
f 311/4/5 309/4/5 308/4/5
f 311/3/5 280/3/5 310/3/5
f 311/4/5 308/4/5 280/4/5
f 312/4/5 301/4/5 300/4/5
f 313/4/5 279/4/5 301/4/5
f 313/4/5 301/4/5 312/4/5
f 314/4/5 311/4/5 310/4/5
f 315/4/5 309/4/5 311/4/5
f 315/4/5 311/4/5 314/4/5
f 318/4/5 317/4/5 316/4/5
f 319/4/5 317/4/5 318/4/5
f 322/4/5 321/4/5 320/4/5
f 323/4/5 321/4/5 322/4/5
f 326/4/5 325/4/5 324/4/5
f 327/4/5 325/4/5 326/4/5
f 328/4/5 326/4/5 324/4/5
f 329/4/5 326/4/5 328/4/5
f 332/4/5 331/4/5 330/4/5
f 333/4/5 331/4/5 332/4/5
f 334/4/5 332/4/5 330/4/5
f 335/4/5 332/4/5 334/4/5
f 338/4/5 337/4/5 336/4/5
f 339/4/5 337/4/5 338/4/5
f 342/4/5 341/4/5 340/4/5
f 343/4/5 341/4/5 342/4/5
f 346/4/5 345/4/5 344/4/5
f 347/4/5 345/4/5 346/4/5
f 350/4/5 349/4/5 348/4/5
f 351/4/5 349/4/5 350/4/5
f 352/4/6 353/4/6 354/4/6
f 354/4/6 353/4/6 355/4/6
f 355/4/6 353/4/6 356/4/6
f 356/4/6 353/4/6 357/4/6
f 358/5/6 359/5/6 362/5/6
f 362/5/6 359/5/6 363/5/6
f 363/5/6 359/5/6 364/5/6
f 364/5/6 359/5/6 365/5/6
f 362/1/6 363/1/6 366/1/6
f 363/5/6 364/5/6 367/5/6
f 366/1/6 363/1/6 367/1/6
f 364/1/6 365/1/6 368/1/6
f 367/5/6 364/5/6 368/5/6
f 368/1/6 365/1/6 369/1/6
f 358/5/6 362/5/6 370/5/6
f 362/1/6 366/1/6 370/1/6
f 370/1/6 366/1/6 371/1/6
f 369/1/6 365/1/6 372/1/6
f 365/5/6 359/5/6 373/5/6
f 372/1/6 365/1/6 373/1/6
f 370/5/6 371/5/6 374/5/6
f 358/5/6 370/5/6 374/5/6
f 374/5/6 371/5/6 375/5/6
f 372/5/6 373/5/6 376/5/6
f 373/5/6 359/5/6 377/5/6
f 376/5/6 373/5/6 377/5/6
f 374/1/6 375/1/6 378/1/6
f 376/1/6 377/1/6 381/1/6
f 358/5/6 374/5/6 382/5/6
f 374/1/6 378/1/6 382/1/6
f 378/1/6 379/1/6 382/1/6
f 379/5/6 380/5/6 383/5/6
f 382/1/6 379/1/6 383/1/6
f 380/1/6 381/1/6 384/1/6
f 383/5/6 380/5/6 384/5/6
f 377/5/6 359/5/6 385/5/6
f 384/1/6 381/1/6 385/1/6
f 381/1/6 377/1/6 385/1/6
f 383/5/6 384/5/6 386/5/6
f 382/5/6 383/5/6 386/5/6
f 384/5/6 385/5/6 386/5/6
f 358/5/6 382/5/6 386/5/6
f 385/5/6 359/5/6 387/5/6
f 386/5/6 385/5/6 387/5/6
f 352/4/6 354/4/6 388/4/6
f 360/4/6 361/4/6 390/4/6
f 390/4/6 361/4/6 391/4/6
f 388/4/6 389/4/6 392/4/6
f 352/4/6 388/4/6 392/4/6
f 392/4/6 389/4/6 393/4/6
f 394/4/6 395/4/6 396/4/6
f 396/4/6 395/4/6 397/4/6
f 398/6/6 399/6/6 400/6/6
f 400/6/6 399/6/6 401/6/6
f 394/4/6 396/4/6 402/4/6
f 394/4/6 402/4/6 404/4/6
f 402/4/6 403/4/6 404/4/6
f 404/4/6 403/4/6 405/4/6
f 406/4/6 407/4/6 408/4/6
f 408/4/6 407/4/6 409/4/6
f 410/4/6 411/4/6 412/4/6
f 412/4/6 411/4/6 413/4/6
f 412/5/6 413/5/6 414/5/6
f 413/4/6 411/4/6 415/4/6
f 414/5/6 413/5/6 415/5/6
f 414/4/6 415/4/6 416/4/6
f 415/4/6 411/4/6 417/4/6
f 416/4/6 415/4/6 417/4/6
f 416/5/6 417/5/6 418/5/6
f 417/4/6 411/4/6 419/4/6
f 418/5/6 417/5/6 419/5/6
f 418/4/6 419/4/6 420/4/6
f 419/4/6 411/4/6 421/4/6
f 420/4/6 419/4/6 421/4/6
f 422/4/6 423/4/6 424/4/6
f 424/4/6 423/4/6 425/4/6
f 422/4/6 424/4/6 426/4/6
f 426/4/6 424/4/6 427/4/6
f 428/4/6 429/4/6 431/4/6
f 431/4/6 429/4/6 432/4/6
f 432/4/6 429/4/6 433/4/6
f 430/4/6 431/4/6 434/4/6
f 431/4/6 432/4/6 434/4/6
f 434/4/6 432/4/6 435/4/6
f 436/4/6 437/4/6 438/4/6
f 438/4/6 437/4/6 439/4/6
f 440/4/6 441/4/6 442/4/6
f 442/4/6 441/4/6 443/4/6
f 444/4/6 445/4/6 446/4/6
f 446/4/6 445/4/6 447/4/6
f 448/4/6 449/4/6 450/4/6
f 450/4/6 449/4/6 451/4/6
